<svg width="64" height="64" viewBox="0 0 64 64" fill="none" xmlns="http://www.w3.org/2000/svg">
<path d="M16.6665 9.33334C15.5619 9.33334 14.6665 10.2288 14.6665 11.3333V54.6667H19.9998V47.3333C19.9998 45.4924 21.4922 44 23.3332 44H40.6665C42.5075 44 43.9998 45.4924 43.9998 47.3333V54.6667H49.3332V31.3333C49.3332 30.2288 48.4377 29.3333 47.3332 29.3333H41.9998C40.8953 29.3333 39.9998 28.4379 39.9998 27.3333V11.3333C39.9998 10.2288 39.1044 9.33334 37.9998 9.33334H16.6665ZM23.9998 48V54.6667H29.9998V48H23.9998ZM33.9998 48V54.6667H39.9998V48H33.9998ZM51.3332 58.6667H12.6665C11.5619 58.6667 10.6665 57.7712 10.6665 56.6667V11.3333C10.6665 8.01964 13.3528 5.33334 16.6665 5.33334H37.9998C41.3135 5.33334 43.9998 8.01964 43.9998 11.3333V25.3333H47.3332C50.6469 25.3333 53.3332 28.0196 53.3332 31.3333V56.6667C53.3332 57.7712 52.4377 58.6667 51.3332 58.6667ZM19.9998 17.3333C19.9998 15.8606 21.1937 14.6667 22.6665 14.6667C24.1393 14.6667 25.3332 15.8606 25.3332 17.3333C25.3332 18.8061 24.1393 20 22.6665 20C21.1937 20 19.9998 18.8061 19.9998 17.3333ZM22.6665 33.3333C21.1937 33.3333 19.9998 34.5273 19.9998 36C19.9998 37.4728 21.1937 38.6667 22.6665 38.6667C24.1393 38.6667 25.3332 37.4728 25.3332 36C25.3332 34.5273 24.1393 33.3333 22.6665 33.3333ZM22.6665 24C21.1937 24 19.9998 25.1939 19.9998 26.6667C19.9998 28.1394 21.1937 29.3333 22.6665 29.3333C24.1393 29.3333 25.3332 28.1394 25.3332 26.6667C25.3332 25.1939 24.1393 24 22.6665 24ZM31.9998 14.6667C30.5271 14.6667 29.3332 15.8606 29.3332 17.3333C29.3332 18.8061 30.5271 20 31.9998 20C33.4726 20 34.6665 18.8061 34.6665 17.3333C34.6665 15.8606 33.4726 14.6667 31.9998 14.6667ZM31.9998 33.3333C30.5271 33.3333 29.3332 34.5273 29.3332 36C29.3332 37.4728 30.5271 38.6667 31.9998 38.6667C33.4726 38.6667 34.6665 37.4728 34.6665 36C34.6665 34.5273 33.4726 33.3333 31.9998 33.3333ZM41.3332 33.3333C39.8604 33.3333 38.6665 34.5273 38.6665 36C38.6665 37.4728 39.8604 38.6667 41.3332 38.6667C42.8059 38.6667 43.9998 37.4728 43.9998 36C43.9998 34.5273 42.8059 33.3333 41.3332 33.3333ZM31.9998 24C30.5271 24 29.3332 25.1939 29.3332 26.6667C29.3332 28.1394 30.5271 29.3333 31.9998 29.3333C33.4726 29.3333 34.6665 28.1394 34.6665 26.6667C34.6665 25.1939 33.4726 24 31.9998 24Z" fill="#F4FAFD"/>
</svg>
