<svg width="64" height="64" viewBox="0 0 64 64" fill="none" xmlns="http://www.w3.org/2000/svg">
<path d="M22.6667 13.9467C22.6667 10.633 25.353 7.94669 28.6667 7.94669H35.3333C38.647 7.94669 41.3333 10.633 41.3333 13.9467V18.6667H50C53.3137 18.6667 56 21.353 56 24.6667V54C56 55.1046 55.1046 56 54 56H10C8.89543 56 8 55.1046 8 54V32.6667C8 29.353 10.6863 26.6667 14 26.6667H22.6667V13.9467ZM26.6667 52H37.3333V13.9467C37.3333 12.8421 36.4379 11.9467 35.3333 11.9467H28.6667C27.5621 11.9467 26.6667 12.8421 26.6667 13.9467V52ZM22.6667 30.6667H14C12.8954 30.6667 12 31.5621 12 32.6667V52H22.6667V30.6667ZM41.3333 52H52V24.6667C52 23.5621 51.1046 22.6667 50 22.6667H41.3333V52Z" fill="#F4FAFD"/>
</svg>
