<svg width="64" height="64" viewBox="0 0 64 64" fill="none" xmlns="http://www.w3.org/2000/svg">
<path d="M50.6668 12C48.4577 12 46.6668 13.7909 46.6668 16C46.6668 18.2091 48.4577 20 50.6668 20C52.876 20 54.6668 18.2091 54.6668 16C54.6668 13.7909 52.876 12 50.6668 12ZM42.6668 16C42.6668 11.5817 46.2486 8 50.6668 8C55.0851 8 58.6668 11.5817 58.6668 16C58.6668 20.4183 55.0851 24 50.6668 24C50.2354 24 49.8119 23.9658 49.399 23.9001L43.9641 32.8558C44.8286 34.1335 45.3335 35.6745 45.3335 37.3333C45.3335 41.7516 41.7518 45.3333 37.3335 45.3333C34.9259 45.3333 32.7666 44.2698 31.3 42.5868L21.3224 47.5748C21.3298 47.7156 21.3335 47.8574 21.3335 48C21.3335 52.4183 17.7518 56 13.3335 56C8.91522 56 5.3335 52.4183 5.3335 48C5.3335 43.5817 8.91522 40 13.3335 40C16.1766 40 18.6733 41.4831 20.0922 43.7178L29.5095 39.01C29.3942 38.4693 29.3335 37.9084 29.3335 37.3333C29.3335 32.9151 32.9152 29.3333 37.3335 29.3333C38.6196 29.3333 39.8348 29.6368 40.9114 30.1761L45.7056 22.2762C43.8545 20.811 42.6668 18.5442 42.6668 16ZM37.3335 33.3333C35.1244 33.3333 33.3335 35.1242 33.3335 37.3333C33.3335 39.5425 35.1244 41.3333 37.3335 41.3333C39.5426 41.3333 41.3335 39.5425 41.3335 37.3333C41.3335 35.1242 39.5426 33.3333 37.3335 33.3333ZM13.3335 44C11.1244 44 9.3335 45.7909 9.3335 48C9.3335 50.2091 11.1244 52 13.3335 52C15.5426 52 17.3335 50.2091 17.3335 48C17.3335 45.7909 15.5426 44 13.3335 44Z" fill="#F4FAFD"/>
</svg>
